<svg xmlns="http://www.w3.org/2000/svg" width="40" height="40" fill="none"><path opacity=".2" d="M20.02 0h-.1c-1.56.01-2.97.5-4.09 1.62a5.54 5.54 0 00-1.21 2.6l.34.18c1.64.77 3.43 1.22 4.94 1.22.71 0 2.6-.12 4.98-1.23l.44-.22a5.48 5.48 0 00-1.2-2.56A5.7 5.7 0 0020.01 0zM4.23 14.64c-.99.24-1.94.53-2.62 1.21A5.62 5.62 0 000 19.93v.1a5.7 5.7 0 001.6 4.1c.67.67 1.6 1 2.56 1.24l.23-.44a12.45 12.45 0 001.23-4.99c0-.7-.12-2.6-1.23-4.98l-.16-.32zM35.59 14.6l-.2.36a12.1 12.1 0 00-1.2 4.97c0 .55.08 2.53 1.22 4.99l.23.44c1-.24 1.97-.53 2.65-1.22a5.64 5.64 0 001.61-4.08v-.1a5.66 5.66 0 00-1.6-4.12c-.7-.69-1.7-.98-2.71-1.24zM19.89 34.25c-.55 0-2.49.09-4.93 1.2l-.42.25c.25.99.57 1.97 1.27 2.67A5.59 5.59 0 0019.89 40L20 40a5.56 5.56 0 004.07-1.62c.68-.68.97-1.65 1.21-2.63l-.49-.28a12.01 12.01 0 00-4.9-1.22z" fill="#fff"/><path d="M34.26 25.45a15.55 15.55 0 01-1.33-4.88l-.02-.63.02-.62c.04-.37.07-.77.16-1.2.2-1.17.58-2.41 1.17-3.68l.03-.06c.16-.34.3-.57.74-1.3.88-1.44 1.21-2.2 1.21-3.18 0-1.64-.65-3.09-1.86-4.33l-.07-.06a6.06 6.06 0 00-4.34-1.89c-1 0-1.75.33-3.2 1.2-.75.46-1 .6-1.35.78a14.9 14.9 0 01-4.88 1.32c-.26.03-.44.03-.63.03h-.01c-.21 0-.38 0-.64-.03A14.36 14.36 0 0114.4 5.6c-.35-.16-.58-.3-1.32-.75-1.46-.88-2.23-1.22-3.24-1.22-1.62 0-3.08.65-4.31 1.86l-.09.08A6.01 6.01 0 003.57 9.9c0 1 .32 1.74 1.21 3.19a13.43 13.43 0 012.11 6.85c0 .18 0 .37-.02.62-.04.36-.07.78-.16 1.2-.2 1.17-.58 2.42-1.17 3.68l-.13.27c-.16.29-.26.48-.64 1.09-.88 1.45-1.2 2.2-1.2 3.18 0 1.62.64 3.07 1.86 4.31l.07.07a6.02 6.02 0 004.33 1.88c1.05 0 1.89-.37 3.4-1.3.76-.46.86-.53 1.15-.67a15.55 15.55 0 014.88-1.33c.26-.02.44-.02.63-.02.18 0 .37 0 .61.02.37.04.76.07 1.2.16 1.17.2 2.4.57 3.67 1.16h.01c.3.16.4.23 1.15.69 1.52.92 2.36 1.3 3.41 1.3 1.62 0 3.06-.64 4.3-1.86a6.42 6.42 0 001.98-4.42c0-1-.33-1.75-1.21-3.2-.45-.7-.57-.95-.75-1.3zm-9.28-10.67h-3.72v12.07c0 .68-.42 1.02-1.3 1.02-.86 0-1.29-.36-1.29-1.02V14.78h-3.72c-.68 0-1.03-.37-1.03-1.15 0-.74.36-1.12 1.03-1.12h10.02c.68 0 1.03.38 1.03 1.12.02.78-.34 1.15-1.02 1.15z" fill="#fff"/></svg>